<svg width="3863" height="4962" viewBox="0 0 3863 4962" fill="none" xmlns="http://www.w3.org/2000/svg">
<path d="M350.022 2043.7L172 2371H1289.37L2255.24 687.763L2823.4 1689.13H3194.59L2236.3 2L1092.41 2043.7H350.022Z" fill="white"/>
<path d="M2236.3 1365.73L2054.49 1689.13L2425.69 2371H3562L3376.4 2043.7H2622.65L2236.3 1365.73Z" fill="white"/>
<path d="M910.603 1689.13H554.559L1463.61 2L1675.72 344.882L910.603 1689.13Z" fill="white"/>
<path d="M350.022 2043.7L172 2371H1289.37L2255.24 687.763L2823.4 1689.13H3194.59L2236.3 2L1092.41 2043.7H350.022Z" stroke="white"/>
<path d="M2236.3 1365.73L2054.49 1689.13L2425.69 2371H3562L3376.4 2043.7H2622.65L2236.3 1365.73Z" stroke="white"/>
<path d="M910.603 1689.13H554.559L1463.61 2L1675.72 344.882L910.603 1689.13Z" stroke="white"/>
<path d="M3691.83 2905.5C3703.1 2905.5 3708.74 2910.89 3708.74 2921.67V2991.49C3708.74 3002.27 3703.1 3007.66 3691.83 3007.66H3370.64C3351.53 3007.66 3335.6 3009.38 3322.86 3012.81C3310.61 3015.75 3300.57 3021.14 3292.73 3028.98C3285.38 3036.33 3280.23 3046.62 3277.29 3059.85C3274.35 3072.59 3272.88 3088.51 3272.88 3107.62V3114.97H3688.16C3698.94 3114.97 3704.33 3120.36 3704.33 3131.14V3189.21C3704.33 3199.99 3698.94 3205.38 3688.16 3205.38H3272.88V3217.87C3272.88 3236.98 3274.35 3253.15 3277.29 3266.38C3280.23 3279.12 3285.38 3289.41 3292.73 3297.25C3300.57 3304.6 3310.61 3309.99 3322.86 3313.42C3335.6 3316.36 3351.53 3317.83 3370.64 3317.83H3691.83C3703.1 3317.83 3708.74 3323.22 3708.74 3334V3403.83C3708.74 3414.61 3703.1 3420 3691.83 3420H3368.43C3331.19 3420 3299.59 3416.57 3273.62 3409.71C3247.65 3402.85 3226.33 3391.82 3209.67 3376.63C3193.5 3360.95 3181.5 3340.86 3173.66 3316.36C3166.31 3291.37 3162.63 3261.24 3162.63 3225.96V3099.54C3162.63 3064.26 3166.31 3034.37 3173.66 3009.87C3181.5 2985.37 3193.5 2965.52 3209.67 2950.33C3226.33 2934.65 3247.65 2923.38 3273.62 2916.52C3299.59 2909.17 3331.19 2905.5 3368.43 2905.5H3691.83Z" fill="white"/>
<path d="M1283.34 2905.5C1294.12 2905.5 1299.51 2910.89 1299.51 2921.67V2991.49C1299.51 3002.27 1294.12 3007.66 1283.34 3007.66H915.1C900.89 3007.66 890.845 3011.34 884.965 3018.69C879.085 3026.04 876.145 3036.08 876.145 3048.83V3073.81C876.145 3101.25 888.885 3114.97 914.365 3114.97H1189.99C1232.62 3114.97 1264.72 3126 1286.28 3148.05C1307.84 3169.61 1318.62 3200.72 1318.62 3241.39V3300.19C1318.62 3335.96 1308.08 3364.87 1287.01 3386.92C1265.94 3408.97 1233.11 3420 1188.52 3420H781.33C770.06 3420 764.425 3414.61 764.425 3403.83V3334C764.425 3323.22 770.06 3317.83 781.33 3317.83H1167.21C1181.42 3317.83 1191.46 3314.16 1197.34 3306.81C1203.22 3299.46 1206.16 3289.41 1206.16 3276.67V3246.54C1206.16 3219.1 1193.42 3205.38 1167.94 3205.38H892.315C849.685 3205.38 817.59 3194.6 796.03 3173.04C774.47 3150.99 763.69 3119.63 763.69 3078.96V3025.3C763.69 2989.53 774.225 2960.62 795.295 2938.57C816.365 2916.52 849.195 2905.5 893.785 2905.5H1283.34Z" fill="white"/>
<path d="M675.025 3420H527.775L485.925 3342.5H249.55L306.9 3234.77H428.575L342.55 3072.8L158.1 3420H8.525L265.825 2953.45C279.775 2928.65 299.925 2916.25 326.275 2916.25H357.275C383.625 2916.25 403.775 2928.65 417.725 2953.45L675.025 3420Z" fill="white"/>
<path d="M1436 3416V3125.5H1880C1916.5 3119 1916.5 3070.5 1916.5 3070.5C1913 3028 1880 3028 1880 3028H1436V2914H1880C2054 2914 2054 3066 2054 3066C2037.5 3249.5 1880 3238 1880 3238H1563.5V3416H1436Z" fill="white" stroke="black"/>
<path d="M2280 2919H2141V3420H2280V2919Z" fill="white" stroke="black"/>
<path d="M2901.5 2919C2901.5 2919 2708.5 2919 2561 2919C2413.5 2919 2393.5 3021 2393.5 3077.5C2393.5 3134 2393.5 3419.5 2393.5 3419.5H2539V3102C2539 3047 2550.5 3029.5 2603.5 3029.5H2877C2931 3029.5 2932.5 3128 2877 3128H2628.5V3239.5H2781.5L2877 3419.5H3045.5L2929 3230.5C2960.5 3230.5 3058 3204.5 3058 3053.5C3040.55 2956.92 2996.5 2919 2901.5 2919Z" fill="white" stroke="black"/>
<path d="M198.6 3923.7C198.6 3936.5 195.5 3947.4 189.3 3956.4C183.1 3965.2 174.2 3972 162.6 3976.8C151.2 3981.6 137.7 3984 122.1 3984C114.1 3984 106.4 3983.6 99 3982.8C91.8 3982 85.2 3980.9 79.2 3979.5C73.2 3977.9 67.9 3976 63.3 3973.8V3948C70.5 3951.2 79.4 3954.1 90 3956.7C100.8 3959.3 111.9 3960.6 123.3 3960.6C133.9 3960.6 142.8 3959.2 150 3956.4C157.2 3953.6 162.6 3949.6 166.2 3944.4C169.8 3939.2 171.6 3933.1 171.6 3926.1C171.6 3919.1 170.1 3913.2 167.1 3908.4C164.1 3903.6 158.9 3899.2 151.5 3895.2C144.3 3891 134.2 3886.6 121.2 3882C112 3878.6 103.9 3875 96.9 3871.2C90.1 3867.2 84.4 3862.7 79.8 3857.7C75.2 3852.7 71.7 3847 69.3 3840.6C67.1 3834.2 66 3826.8 66 3818.4C66 3807 68.9 3797.3 74.7 3789.3C80.5 3781.1 88.5 3774.8 98.7 3770.4C109.1 3766 121 3763.8 134.4 3763.8C146.2 3763.8 157 3764.9 166.8 3767.1C176.6 3769.3 185.5 3772.2 193.5 3775.8L185.1 3798.9C177.7 3795.7 169.6 3793 160.8 3790.8C152.2 3788.6 143.2 3787.5 133.8 3787.5C124.8 3787.5 117.3 3788.8 111.3 3791.4C105.3 3794 100.8 3797.7 97.8 3802.5C94.8 3807.1 93.3 3812.5 93.3 3818.7C93.3 3825.9 94.8 3831.9 97.8 3836.7C100.8 3841.5 105.7 3845.8 112.5 3849.6C119.3 3853.4 128.5 3857.5 140.1 3861.9C152.7 3866.5 163.3 3871.5 171.9 3876.9C180.7 3882.1 187.3 3888.4 191.7 3895.8C196.3 3903.2 198.6 3912.5 198.6 3923.7ZM475.448 3766.8C503.448 3766.8 523.848 3772.3 536.648 3783.3C549.448 3794.3 555.848 3809.8 555.848 3829.8C555.848 3838.6 554.348 3847.1 551.348 3855.3C548.548 3863.3 543.848 3870.5 537.248 3876.9C530.648 3883.3 521.848 3888.4 510.848 3892.2C499.848 3895.8 486.348 3897.6 470.348 3897.6H445.748V3981H418.748V3766.8H475.448ZM473.048 3789.9H445.748V3874.5H467.348C480.948 3874.5 492.248 3873.1 501.248 3870.3C510.248 3867.3 516.948 3862.6 521.348 3856.2C525.748 3849.8 527.948 3841.4 527.948 3831C527.948 3817.2 523.548 3806.9 514.748 3800.1C505.948 3793.3 492.048 3789.9 473.048 3789.9ZM964.289 3873.6C964.289 3890.2 962.189 3905.3 957.989 3918.9C953.789 3932.3 947.489 3943.9 939.089 3953.7C930.889 3963.5 920.589 3971 908.189 3976.2C895.989 3981.4 881.789 3984 865.589 3984C848.789 3984 834.189 3981.4 821.789 3976.2C809.389 3970.8 799.089 3963.3 790.889 3953.7C782.689 3943.9 776.589 3932.2 772.589 3918.6C768.589 3905 766.589 3889.9 766.589 3873.3C766.589 3851.3 770.189 3832.1 777.389 3815.7C784.589 3799.3 795.489 3786.5 810.089 3777.3C824.889 3768.1 843.489 3763.5 865.889 3763.5C887.289 3763.5 905.289 3768.1 919.889 3777.3C934.489 3786.3 945.489 3799.1 952.889 3815.7C960.489 3832.1 964.289 3851.4 964.289 3873.6ZM795.089 3873.6C795.089 3891.6 797.589 3907.1 802.589 3920.1C807.589 3933.1 815.289 3943.1 825.689 3950.1C836.289 3957.1 849.589 3960.6 865.589 3960.6C881.789 3960.6 894.989 3957.1 905.189 3950.1C915.589 3943.1 923.289 3933.1 928.289 3920.1C933.289 3907.1 935.789 3891.6 935.789 3873.6C935.789 3846.6 930.189 3825.5 918.989 3810.3C907.789 3794.9 890.089 3787.2 865.889 3787.2C849.689 3787.2 836.289 3790.7 825.689 3797.7C815.289 3804.5 807.589 3814.4 802.589 3827.4C797.589 3840.2 795.089 3855.6 795.089 3873.6ZM1247.86 3766.8C1265.66 3766.8 1280.26 3769.1 1291.66 3773.7C1303.26 3778.1 1311.86 3784.8 1317.46 3793.8C1323.06 3802.8 1325.86 3814.1 1325.86 3827.7C1325.86 3839.1 1323.76 3848.6 1319.56 3856.2C1315.36 3863.8 1309.96 3869.9 1303.36 3874.5C1296.96 3878.9 1290.16 3882.4 1282.96 3885L1341.76 3981H1310.26L1258.36 3892.5H1215.76V3981H1188.76V3766.8H1247.86ZM1246.36 3790.2H1215.76V3869.7H1247.86C1259.46 3869.7 1268.96 3868.2 1276.36 3865.2C1283.76 3862 1289.16 3857.4 1292.56 3851.4C1296.16 3845.4 1297.96 3837.9 1297.96 3828.9C1297.96 3819.5 1296.06 3812 1292.26 3806.4C1288.66 3800.8 1283.06 3796.7 1275.46 3794.1C1267.86 3791.5 1258.16 3790.2 1246.36 3790.2ZM1620.19 3981H1593.19V3790.5H1526.29V3766.8H1686.79V3790.5H1620.19V3981ZM2017.58 3923.7C2017.58 3936.5 2014.48 3947.4 2008.28 3956.4C2002.08 3965.2 1993.18 3972 1981.58 3976.8C1970.18 3981.6 1956.68 3984 1941.08 3984C1933.08 3984 1925.38 3983.6 1917.98 3982.8C1910.78 3982 1904.18 3980.9 1898.18 3979.5C1892.18 3977.9 1886.88 3976 1882.28 3973.8V3948C1889.48 3951.2 1898.38 3954.1 1908.98 3956.7C1919.78 3959.3 1930.88 3960.6 1942.28 3960.6C1952.88 3960.6 1961.78 3959.2 1968.98 3956.4C1976.18 3953.6 1981.58 3949.6 1985.18 3944.4C1988.78 3939.2 1990.58 3933.1 1990.58 3926.1C1990.58 3919.1 1989.08 3913.2 1986.08 3908.4C1983.08 3903.6 1977.88 3899.2 1970.48 3895.2C1963.28 3891 1953.18 3886.6 1940.18 3882C1930.98 3878.6 1922.88 3875 1915.88 3871.2C1909.08 3867.2 1903.38 3862.7 1898.78 3857.7C1894.18 3852.7 1890.68 3847 1888.28 3840.6C1886.08 3834.2 1884.98 3826.8 1884.98 3818.4C1884.98 3807 1887.88 3797.3 1893.68 3789.3C1899.48 3781.1 1907.48 3774.8 1917.68 3770.4C1928.08 3766 1939.98 3763.8 1953.38 3763.8C1965.18 3763.8 1975.98 3764.9 1985.78 3767.1C1995.58 3769.3 2004.48 3772.2 2012.48 3775.8L2004.08 3798.9C1996.68 3795.7 1988.58 3793 1979.78 3790.8C1971.18 3788.6 1962.18 3787.5 1952.78 3787.5C1943.78 3787.5 1936.28 3788.8 1930.28 3791.4C1924.28 3794 1919.78 3797.7 1916.78 3802.5C1913.78 3807.1 1912.28 3812.5 1912.28 3818.7C1912.28 3825.9 1913.78 3831.9 1916.78 3836.7C1919.78 3841.5 1924.68 3845.8 1931.48 3849.6C1938.28 3853.4 1947.48 3857.5 1959.08 3861.9C1971.68 3866.5 1982.28 3871.5 1990.88 3876.9C1999.68 3882.1 2006.28 3888.4 2010.68 3895.8C2015.28 3903.2 2017.58 3912.5 2017.58 3923.7ZM2590.03 3787.5C2578.63 3787.5 2568.33 3789.5 2559.13 3793.5C2549.93 3797.3 2542.13 3803 2535.73 3810.6C2529.33 3818 2524.43 3827.1 2521.03 3837.9C2517.63 3848.5 2515.93 3860.5 2515.93 3873.9C2515.93 3891.5 2518.63 3906.8 2524.03 3919.8C2529.63 3932.8 2537.83 3942.8 2548.63 3949.8C2559.63 3956.8 2573.33 3960.3 2589.73 3960.3C2599.13 3960.3 2608.03 3959.5 2616.43 3957.9C2624.83 3956.3 2633.03 3954.3 2641.03 3951.9V3975.3C2633.03 3978.3 2624.73 3980.5 2616.13 3981.9C2607.73 3983.3 2597.63 3984 2585.83 3984C2564.03 3984 2545.83 3979.5 2531.23 3970.5C2516.63 3961.5 2505.63 3948.7 2498.23 3932.1C2491.03 3915.5 2487.43 3896 2487.43 3873.6C2487.43 3857.4 2489.63 3842.6 2494.03 3829.2C2498.63 3815.8 2505.23 3804.2 2513.83 3794.4C2522.63 3784.6 2533.43 3777.1 2546.23 3771.9C2559.03 3766.5 2573.73 3763.8 2590.33 3763.8C2601.33 3763.8 2611.93 3764.9 2622.13 3767.1C2632.33 3769.3 2641.43 3772.4 2649.43 3776.4L2638.63 3799.2C2632.03 3796.2 2624.63 3793.5 2616.43 3791.1C2608.43 3788.7 2599.63 3787.5 2590.03 3787.5ZM2864.78 3981V3766.8H2891.78V3957H2985.38V3981H2864.78ZM3359.07 3905.4C3359.07 3920.2 3356.07 3933.6 3350.07 3945.6C3344.07 3957.4 3334.87 3966.8 3322.47 3973.8C3310.27 3980.6 3294.67 3984 3275.67 3984C3249.07 3984 3228.77 3976.8 3214.77 3962.4C3200.97 3947.8 3194.07 3928.6 3194.07 3904.8V3766.8H3221.07V3905.7C3221.07 3923.1 3225.67 3936.6 3234.87 3946.2C3244.27 3955.8 3258.37 3960.6 3277.17 3960.6C3290.17 3960.6 3300.67 3958.3 3308.67 3953.7C3316.87 3948.9 3322.87 3942.4 3326.67 3934.2C3330.47 3925.8 3332.37 3916.2 3332.37 3905.4V3766.8H3359.07V3905.4ZM3653.81 3766.8C3671.61 3766.8 3686.51 3768.5 3698.51 3771.9C3710.71 3775.3 3719.81 3780.9 3725.81 3788.7C3732.01 3796.5 3735.11 3806.9 3735.11 3819.9C3735.11 3828.3 3733.51 3835.8 3730.31 3842.4C3727.31 3848.8 3722.71 3854.2 3716.51 3858.6C3710.51 3862.8 3703.11 3865.7 3694.31 3867.3V3868.8C3703.31 3870.2 3711.41 3872.8 3718.61 3876.6C3726.01 3880.4 3731.81 3885.8 3736.01 3892.8C3740.21 3899.8 3742.31 3908.9 3742.31 3920.1C3742.31 3933.1 3739.31 3944.2 3733.31 3953.4C3727.31 3962.4 3718.71 3969.3 3707.51 3974.1C3696.51 3978.7 3683.31 3981 3667.91 3981H3592.61V3766.8H3653.81ZM3659.21 3858C3677.61 3858 3690.21 3855.1 3697.01 3849.3C3703.81 3843.3 3707.21 3834.5 3707.21 3822.9C3707.21 3811.1 3703.01 3802.7 3694.61 3797.7C3686.41 3792.5 3673.21 3789.9 3655.01 3789.9H3619.61V3858H3659.21ZM3619.61 3880.5V3958.2H3662.81C3681.81 3958.2 3695.01 3954.5 3702.41 3947.1C3709.81 3939.7 3713.51 3930 3713.51 3918C3713.51 3910.4 3711.81 3903.8 3708.41 3898.2C3705.21 3892.6 3699.71 3888.3 3691.91 3885.3C3684.31 3882.1 3673.91 3880.5 3660.71 3880.5H3619.61Z" fill="#006C0D"/>
</svg>
