<svg width="135" height="44" viewBox="0 0 135 44" fill="none" xmlns="http://www.w3.org/2000/svg">
<path d="M75.3977 22.4605C75.4316 24.082 75.1131 25.6912 74.4645 27.1748C73.8693 28.5006 73.0044 29.685 71.9263 30.6508C70.847 31.6051 69.5939 32.3374 68.2371 32.8068C65.3965 33.7917 62.312 33.7917 59.4714 32.8068C58.118 32.3402 56.8695 31.6075 55.7978 30.6508C54.731 29.6796 53.8743 28.4962 53.2813 27.1748C52.6328 25.6912 52.3142 24.082 52.3482 22.4605C52.3171 20.8626 52.6358 19.2776 53.2813 17.8185C53.8741 16.5079 54.7312 15.3368 55.7978 14.3802C56.8683 13.4351 58.1138 12.714 59.4621 12.2588C62.3068 11.2991 65.3831 11.2991 68.2278 12.2588C69.5824 12.7137 70.8357 13.4323 71.9169 14.3739C72.9948 15.3252 73.86 16.4972 74.4552 17.8122C75.1049 19.2725 75.4267 20.8598 75.3977 22.4605ZM63.8263 19.1197C63.3824 19.1029 62.9404 19.1849 62.5313 19.3598C62.1223 19.5346 61.7563 19.7981 61.4591 20.1317C60.8696 20.7747 60.5467 21.6218 60.557 22.4982C60.5396 23.4062 60.8746 24.2849 61.4902 24.9465C61.8011 25.2662 62.172 25.5201 62.5811 25.6934C62.9902 25.8667 63.4293 25.956 63.8729 25.956C64.3165 25.956 64.7557 25.8667 65.1648 25.6934C65.5739 25.5201 65.9447 25.2662 66.2556 24.9465C66.8713 24.2849 67.2062 23.4062 67.1888 22.4982C67.1997 21.6157 66.8641 20.7648 66.2556 20.1317C65.9468 19.7961 65.5698 19.532 65.1505 19.3573C64.7312 19.1826 64.2795 19.1016 63.8263 19.1197Z" fill="#0045FB"/>
<path d="M129.908 22.4605C129.942 24.082 129.624 25.6912 128.975 27.1748C128.38 28.5006 127.515 29.685 126.437 30.6508C125.358 31.6051 124.105 32.3374 122.748 32.8068C119.907 33.7917 116.823 33.7917 113.982 32.8068C112.629 32.3402 111.38 31.6075 110.309 30.6508C109.242 29.6796 108.385 28.4962 107.792 27.1748C107.144 25.6912 106.825 24.082 106.859 22.4605C106.828 20.8626 107.147 19.2776 107.792 17.8185C108.385 16.5079 109.242 15.3368 110.309 14.3802C111.379 13.4351 112.624 12.714 113.973 12.2588C116.818 11.2991 119.894 11.2991 122.739 12.2588C124.093 12.7137 125.346 13.4323 126.428 14.3739C127.506 15.3252 128.371 16.4972 128.966 17.8122C129.616 19.2725 129.937 20.8598 129.908 22.4605ZM118.337 19.1197C117.894 19.1027 117.452 19.1846 117.043 19.3595C116.635 19.5344 116.269 19.798 115.973 20.1317C115.381 20.7735 115.057 21.6211 115.068 22.4982C115.05 23.4062 115.385 24.2849 116.001 24.9465C116.312 25.2662 116.683 25.5201 117.092 25.6934C117.501 25.8667 117.94 25.956 118.384 25.956C118.827 25.956 119.266 25.8667 119.676 25.6934C120.085 25.5201 120.455 25.2662 120.766 24.9465C121.382 24.2849 121.717 23.4062 121.7 22.4982C121.71 21.6157 121.375 20.7648 120.766 20.1317C120.458 19.7961 120.081 19.532 119.661 19.3573C119.242 19.1826 118.79 19.1016 118.337 19.1197Z" fill="#0045FB"/>
<path d="M86.8137 32.0584V5.19637C86.8137 4.6778 86.5431 4.41066 86.1014 4.50809L78.4648 5.99152C78.0542 6.07323 77.7401 6.33409 77.7432 6.72066V31.9641C77.7285 32.0684 77.7375 32.1747 77.7695 32.275C77.8015 32.3753 77.8557 32.4669 77.9279 32.5429C78.0001 32.6189 78.0885 32.6774 78.1864 32.7137C78.2843 32.7501 78.3891 32.7635 78.4928 32.7529H86.1885C86.6395 32.7529 86.8137 32.4764 86.8137 32.0584Z" fill="#0045FB"/>
<path d="M49.9994 18.5668C49.6195 17.3316 49.0267 16.174 48.2482 15.1473C47.473 14.1315 46.4892 13.2974 45.3646 12.7022C44.1307 12.0567 42.7568 11.7327 41.3675 11.7593C40.309 11.7719 39.2634 11.9962 38.2911 12.4193C37.5664 12.7336 36.5212 13.6325 36.1853 13.6325H35.5227V13.0668C35.5227 12.6456 35.3392 12.3219 34.9255 12.3125H27.8893C27.7941 12.3044 27.6984 12.3173 27.6087 12.3505C27.519 12.3836 27.4375 12.4361 27.37 12.5044C27.3025 12.5726 27.2505 12.6549 27.2177 12.7455C27.1849 12.8361 27.1721 12.9329 27.1801 13.0291V39.3065C27.1694 39.4123 27.1844 39.5191 27.2237 39.6178C27.2629 39.7165 27.3253 39.8041 27.4055 39.873C27.4857 39.942 27.5812 39.9902 27.6839 40.0136C27.7866 40.037 27.8934 40.0349 27.9951 40.0073L35.5196 38.8633C35.6752 38.8265 35.8108 38.7305 35.8982 38.5953C35.9857 38.4601 36.0183 38.2961 35.9893 38.1373V31.6756H36.5461C36.7949 31.6756 37.7468 32.4551 38.4498 32.7253C39.393 33.0957 40.396 33.2864 41.408 33.2879C42.7923 33.3146 44.1611 32.9905 45.3895 32.3451C46.5085 31.741 47.4848 30.8994 48.2513 29.8779C49.0317 28.8321 49.6235 27.6554 49.9994 26.4019C50.3956 25.119 50.597 23.7827 50.5967 22.4388C50.5957 21.1248 50.3942 19.8188 49.9994 18.5668ZM41.5231 24.9185C40.9569 25.5785 40.1388 25.9085 39.0626 25.9085C38.5958 25.9303 38.1298 25.8516 37.6954 25.6777C37.2611 25.5038 36.8682 25.2386 36.543 24.8996C35.9256 24.2391 35.5904 23.3596 35.6098 22.4513C35.606 21.9964 35.6939 21.5455 35.868 21.1259C36.0422 20.7064 36.299 20.3271 36.6229 20.011C36.9468 19.695 37.3309 19.4488 37.7519 19.2875C38.173 19.1262 38.6221 19.0531 39.0719 19.0728C40.1482 19.0728 40.9663 19.4091 41.5324 20.0816C42.0899 20.7413 42.3897 21.584 42.3754 22.4513C42.4027 23.3519 42.0991 24.2308 41.5231 24.9185Z" fill="#0045FB"/>
<path d="M23.8463 24.1164C23.4755 23.3622 22.9545 22.6934 22.3159 22.1522C21.6639 21.6081 20.9366 21.1634 20.1571 20.8322C19.3648 20.4901 18.539 20.2331 17.6935 20.0653C16.8974 19.936 16.1131 19.7416 15.3481 19.4839C15.0091 19.3299 14.8411 19.1162 14.8411 18.8553C14.8283 18.7013 14.8653 18.5472 14.9467 18.4162C15.028 18.2853 15.1493 18.1846 15.2921 18.1293C15.6565 17.984 16.0451 17.9104 16.4368 17.9125C17.1481 17.9187 17.8534 18.044 18.5241 18.2833C19.0542 18.4527 19.5627 18.6848 20.0389 18.9747C20.1136 19.0162 20.2008 19.0285 20.2839 19.0094C20.3671 18.9903 20.4404 18.9411 20.49 18.871L23.9116 14.7319C24.3004 14.2259 24.2911 13.4936 23.6441 13.1605C22.68 12.643 21.6644 12.2301 20.6144 11.9285C19.0086 11.4368 17.3402 11.1858 15.6623 11.1836C14.6038 11.1966 13.5512 11.3455 12.5299 11.6267C11.4398 11.9094 10.4028 12.3701 9.45978 12.9907C8.51599 13.6149 7.71954 14.4411 7.12683 15.4107C6.48434 16.4954 6.16067 17.7425 6.19365 19.0062C6.17009 19.9422 6.36622 20.8706 6.766 21.7153C7.12648 22.4429 7.61927 23.0954 8.21865 23.6387C8.79857 24.1567 9.45438 24.5807 10.1628 24.8959C10.8351 25.2019 11.5337 25.4449 12.25 25.6219C13.1451 25.817 14.0263 26.0721 14.8878 26.3856C15.3948 26.593 15.6468 26.8759 15.6468 27.2342C15.6551 27.3737 15.6207 27.5125 15.5484 27.6316C15.4761 27.7508 15.3692 27.8447 15.2424 27.9004C14.9472 28.0262 14.6295 28.0893 14.3092 28.0859C13.4285 28.0734 12.5592 27.8832 11.7523 27.5264C11.0507 27.2731 10.3942 26.907 9.80816 26.4422C9.75477 26.3972 9.68598 26.3753 9.6167 26.3811C9.54742 26.387 9.48322 26.4202 9.438 26.4736L5.7706 30.7384C5.66633 30.8467 5.58706 30.977 5.53846 31.1199C5.48985 31.2628 5.47313 31.4147 5.48948 31.5649C5.50583 31.7151 5.55485 31.8598 5.63303 31.9886C5.71121 32.1173 5.81661 32.2271 5.94169 32.3099C7.01484 32.9856 8.03512 33.3376 9.45978 33.7682C11.2353 34.3028 13.0786 34.5728 14.9313 34.5696C16.0024 34.5628 17.0692 34.431 18.1104 34.1767C19.1996 33.9262 20.2395 33.4928 21.1867 32.8944C22.1314 32.294 22.9256 31.4808 23.5072 30.5184C24.1494 29.4044 24.4675 28.1298 24.4249 26.8413C24.4421 25.9001 24.2441 24.9676 23.8463 24.1164Z" fill="#0045FB"/>
<path d="M104.345 26.5897C104.24 26.6117 104.159 26.6275 104.034 26.6463C103.786 26.6877 103.533 26.7035 103.281 26.6935C102.656 26.7302 102.037 26.5445 101.533 26.1686C101.106 25.8187 100.899 25.1524 100.911 24.1697V18.4183L104.554 18.0789C104.918 18.0475 105.297 17.8872 105.297 17.4849V13.1415C105.297 12.6575 105.017 12.4312 104.691 12.4563L100.893 12.7926V8.56859C100.893 7.96517 100.647 7.79859 100.27 7.84259L93.0072 9.11545C92.8151 9.1282 92.6351 9.21416 92.5034 9.35594C92.3718 9.49773 92.2983 9.68475 92.2979 9.87917V13.4872L90.0552 13.6852C89.6259 13.7292 89.4922 13.968 89.4922 14.3766V18.6855C89.4922 19.1003 89.6415 19.314 90.1143 19.314L92.3353 19.1035V26.0177C92.3353 28.5027 92.9895 30.335 94.2981 31.5146C95.6066 32.6942 97.6181 33.283 100.333 33.2809C101.214 33.2844 102.095 33.2204 102.967 33.0892C103.292 33.0414 103.613 32.9731 103.928 32.8849C104.361 32.7277 104.908 32.3915 104.908 31.7409V26.9857C104.906 26.9183 104.889 26.8523 104.857 26.7929C104.826 26.7336 104.781 26.6826 104.726 26.6441C104.671 26.6055 104.608 26.5805 104.542 26.5711C104.476 26.5617 104.408 26.5681 104.345 26.5897Z" fill="#0045FB"/>
</svg>
